<svg width="24" height="24" xmlns="http://www.w3.org/2000/svg">
 <metadata id="metadata7">image/svg+xml</metadata>
 <g>
  <title>Layer 1</title>
  <path d="m12.60635,2.90465c-0.27794,-0.00282 -1.35524,1.09059 -1.65101,1.70694c-0.36207,0.75469 -0.46588,1.59339 -0.23063,1.81613c0.07121,0.06743 0.5956,0.12069 1.16537,0.12069c1.02874,0 1.03199,-0.00363 1.03199,-0.56898c0,-0.31313 -0.14788,-0.80359 -0.32781,-1.09198c-0.27407,-0.43935 -0.29058,-0.64014 -0.10326,-1.21842c0.12308,-0.37957 0.19444,-0.7183 0.15783,-0.75289c-0.01091,-0.0104 -0.02397,-0.01131 -0.04248,-0.0115l0,0zm-5.06843,0.79312l-0.33996,0.7299c-0.40111,0.86607 -0.32404,2.23178 0.16391,2.93686l0.32173,0.46556l0.96513,-0.50004c0.53081,-0.2772 0.96969,-0.58048 0.97128,-0.67244c0.00152,-0.09195 -0.40061,-0.5151 -0.89233,-0.94255c-0.56279,-0.48926 -0.95097,-1.00697 -1.04408,-1.39659l-0.14567,-0.62071l0,0.00001zm9.82128,0.85635c-0.1148,-0.00009 -0.28361,0.01935 -0.50373,0.05747c-1.07509,0.18613 -2.28066,0.91802 -2.62836,1.59773l-0.30357,0.59772l0.9105,0.50575l0.90455,0.50004l0.33983,-0.37359c0.19423,-0.21555 0.33997,-0.68117 0.33997,-1.08049c0,-0.55081 0.1235,-0.79507 0.58268,-1.16095c0.57522,-0.45824 0.7028,-0.64332 0.35813,-0.6437l0,0.00001zm-13.76072,2.09775l0,0.68967c0,0.84151 0.58703,1.97886 1.28688,2.50008c0.63031,0.46943 1.15427,0.495 1.29896,0.06318c0.0593,-0.17697 0.26773,-0.55425 0.46128,-0.83906c0.34181,-0.50304 0.342,-0.52548 -0.02424,-0.78164c-0.20737,-0.14505 -0.69395,-0.26434 -1.08048,-0.26434c-0.75934,0 -1.12211,-0.20489 -1.62068,-0.91386l-0.32173,-0.45403zm8.20672,0.45403c-4.11166,-0.05102 -7.16815,4.24407 -4.84397,7.93129c0.64762,1.02721 1.9934,2.03572 3.12002,2.34479c1.898,0.5209 4.18481,-0.02694 5.49951,-1.31614c1.57883,-1.54811 2.05404,-3.33525 1.43254,-5.37941c-0.37513,-1.2338 -2.04347,-2.8394 -3.39926,-3.27594c-0.61805,-0.19898 -1.22152,-0.29731 -1.80883,-0.30461l0,0.00001zm6.67095,0.68967c-0.41705,0.01753 -0.78782,0.07782 -0.99552,0.18965c-0.92894,0.50004 -0.92845,0.48225 -0.35206,1.45982c0.54179,0.91871 0.55236,0.92519 1.08048,0.66667c0.29328,-0.14361 0.66764,-0.50435 0.83162,-0.80459c0.18097,-0.3315 0.5094,-0.58845 0.83155,-0.65523c1.09208,-0.22634 1.13622,-0.27906 0.53413,-0.58048c-0.41581,-0.20816 -1.2352,-0.30502 -1.93019,-0.27585zm0.21246,3.41961c-0.13939,-0.00235 -0.26606,0.00824 -0.37637,0.04022c-0.26758,0.07769 -0.3399,0.30685 -0.3399,1.06907c0,0.53261 0.0623,1.02447 0.13345,1.09196c0.22835,0.21621 0.72828,0.13191 1.47508,-0.24721c0.67683,-0.34347 0.77477,-0.3521 1.43253,-0.09188c0.81753,0.32339 0.9576,0.27068 0.66156,-0.25296c-0.44841,-0.79335 -2.01128,-1.59271 -2.98636,-1.60919l0,0zm-13.7851,0.11497c-0.36277,0 -0.93068,0.1306 -1.26254,0.2873c-0.54811,0.25891 -0.66015,0.25401 -1.21406,-0.0172c-0.78329,-0.38356 -0.91445,-0.24413 -0.40662,0.43104c0.45308,0.60252 1.19561,1.11144 1.94848,1.33341c0.27633,0.08149 0.72226,0.13367 0.9894,0.1149c0.44998,-0.03159 0.49229,-0.11203 0.54628,-1.09196l0.05467,-1.05749l-0.65561,0l0,0zm0.88625,3.04606c-0.10218,0.00883 -0.23576,0.07357 -0.44921,0.17814c-0.31718,0.15532 -0.57661,0.36237 -0.57661,0.46551c0,0.40887 -0.96246,1.09202 -1.54187,1.09202c-0.32529,0 -0.59486,0.08273 -0.59486,0.1839c0,0.10111 0.02192,0.18809 0.04858,0.18966c0.02676,0.00157 0.39822,0.11863 0.8255,0.26434c0.42738,0.14577 0.95927,0.27147 1.18373,0.27592c0.56337,0.01118 1.65873,-0.35871 2.06989,-0.69545c0.29371,-0.24054 0.30462,-0.31777 0.07282,-0.56896c-0.14825,-0.16062 -0.41241,-0.56105 -0.58878,-0.89079c-0.1979,-0.36983 -0.27903,-0.50913 -0.44921,-0.49428l0.00001,0zm12.1037,0.08044c-0.23553,0 -1.28086,1.42091 -1.28086,1.74149c0,0.17932 1.35856,0.67393 1.54788,0.56321c0.31621,-0.18508 1.17814,0.25852 1.40221,0.72416c0.49614,1.03107 0.73374,0.26787 0.32159,-1.03454c-0.23277,-0.73573 -1.48903,-1.99432 -1.9909,-1.99432l0.00007,0zm-10.11276,2.36788l-0.33997,0.40227c-0.19237,0.22497 -0.34594,0.70454 -0.34594,1.09778c0,0.55079 -0.12353,0.79511 -0.58269,1.16088c-0.32056,0.25545 -0.58279,0.51194 -0.58279,0.56903c0,0.22321 1.11236,0.07907 1.85753,-0.24132c0.81145,-0.3491 1.83315,-1.33844 1.83315,-1.7702c0,-0.13531 -0.41028,-0.46198 -0.91657,-0.72991l-0.92272,-0.48853l0,0zm8.01853,0.12073c-0.17889,0.00124 -0.42437,0.13616 -0.86194,0.37356c-0.52038,0.28232 -0.97086,0.53221 -1.00153,0.5517c-0.19319,0.12275 0.4721,0.97496 1.03185,1.3219c0.51734,0.32058 0.69907,0.58021 0.79522,1.14951c0.06824,0.40436 0.15113,0.7356 0.18815,0.7356c0.03709,0 0.21633,-0.26558 0.39453,-0.59199c0.36863,-0.67484 0.43121,-2.2858 0.10934,-2.82187c-0.30219,-0.50304 -0.42555,-0.72004 -0.65562,-0.7184l0,0zm-5.2081,1.18966l0,0.60918c0,0.33471 0.12847,0.76922 0.28533,0.96554c0.36836,0.46112 0.36746,0.8904 0,1.56328c-0.35682,0.65313 -0.10547,0.70506 0.71012,0.15519c0.62751,-0.42306 1.27098,-1.47879 1.33549,-2.18973c0.09829,-1.08437 0.08102,-1.10347 -1.16551,-1.10347l-1.16543,0l0,0z" id="path2875" fill="#BBBBBB"/>
 </g>
</svg>